<?xml version="1.0" encoding="utf-8"?>
<!-- Generator: Adobe Illustrator 27.2.0, SVG Export Plug-In . SVG Version: 6.00 Build 0)  -->
<svg version="1.1" id="Layer_1" xmlns="http://www.w3.org/2000/svg" xmlns:xlink="http://www.w3.org/1999/xlink" x="0px" y="0px"
	 viewBox="0 0 512 512" style="enable-background:new 0 0 512 512;" xml:space="preserve">
<g>
	<path class="st0" d="M326.32,332.67c24.74,0,44.79,20.05,44.79,44.79l-0.03,24.62c2.99,56.03-38.67,84.38-113.43,84.38
		c-74.45,0-116.88-27.89-116.88-83.41v-25.59c0-24.74,20.05-44.79,44.79-44.79H326.32z M44.79,204.7l112,0
		c-2.11,8.18-3.23,16.75-3.23,25.59c0,28.55,11.69,54.37,30.54,72.94l4.15,3.87l-2.69-0.03c-7.71,0-15.14,1.24-22.08,3.53
		c-22.13,7.31-39.41,25.3-45.71,47.87l-0.88,0.02C42.43,358.49,0,330.6,0,275.08v-25.59C0,224.75,20.05,204.7,44.79,204.7z
		 M467.09,204.7c24.74,0,44.79,20.05,44.79,44.79l-0.03,24.62c2.99,56.03-38.67,84.38-113.43,84.38l-4.31-0.04
		c-6.11-21.85-22.51-39.41-43.65-47.13c-6.02-2.2-12.43-3.6-19.09-4.07l-5.04-0.18l-2.7,0.03c21.27-18.76,34.69-46.22,34.69-76.81
		c0-8.84-1.12-17.41-3.23-25.59L467.09,204.7z M255.94,153.51c42.41,0,76.78,34.38,76.78,76.78c0,42.41-34.38,76.78-76.78,76.78
		s-76.78-34.38-76.78-76.78C179.16,187.89,213.53,153.51,255.94,153.51z M115.17,25.54c42.41,0,76.78,34.38,76.78,76.78
		c0,42.4-34.38,76.78-76.78,76.78s-76.78-34.38-76.78-76.78C38.39,59.92,72.77,25.54,115.17,25.54z M396.71,25.54
		c42.41,0,76.78,34.38,76.78,76.78c0,42.4-34.38,76.78-76.78,76.78s-76.78-34.38-76.78-76.78C319.92,59.92,354.3,25.54,396.71,25.54
		z"/>
</g>
</svg>
